<svg xmlns="http://www.w3.org/2000/svg" xmlns:xlink="http://www.w3.org/1999/xlink" id="Layer_1" x="0" y="0" version="1.1" viewBox="0 0 50 50" xml:space="preserve" style="enable-background:new 0 0 50 50"><style type="text/css">.st0{fill:#a0a1a2}.st1{fill:#7a7a7a}.st2{fill:#3e3e3e}.st3{fill:#e5e5e5}.st4{fill:#0070c9}.st5{fill:#000e92}.st6,.st7{fill:#fff}.st7{opacity:.25;enable-background:new}.st8{opacity:.2;fill:#3e3e3e}</style><polygon points="12.8 20.1 24.8 15.3 24.8 1.1 12.7 6" class="st0"/><polygon points="36.7 5.4 24.8 1.1 24.8 1.1 24.8 1.3 24.8 25 36.7 20.1" class="st1"/><polygon points="36.7 20.1 24.8 25 12.8 20.1 24.8 15.4" class="st2"/><polygon points="0 40.6 12.1 35.9 12.1 21.6 0 27.7" class="st0"/><polygon points="24 27 12.1 21.6 12.1 21.6 12.1 21.8 12 45.5 24 40.6" class="st1"/><polygon points="24 40.6 12.1 45.5 0 40.6 12.1 35.9" class="st2"/><polygon points="26 40.6 38.1 35.9 38.1 21.6 26 27.1" class="st3"/><polygon points="50 27 38.1 21.6 38.1 21.6 38.1 21.8 38 45.5 50 40.6" class="st0"/><polygon points="50 40.6 38.1 45.5 26 40.6 38.1 35.9" class="st4"/><path d="M44.8,38.8H31.3c-0.7,0-1.3-0.6-1.3-1.3v-8.7c0-0.7,0.5-1.2,1.2-1.2h13.5c0.7,0,1.3,0.6,1.3,1.3v8.6	C46.1,38.2,45.5,38.8,44.8,38.8z" class="st5"/><polygon points="35.8 37.8 31.3 33.3 35.9 28.9 36.8 29.8 33 33.3 36.6 37" class="st6"/><polygon points="40.1 37.8 44.6 33.3 40 28.9 39.2 29.8 42.9 33.3 39.3 37" class="st6"/><path d="M40.6,27.6l-9.4,0c-0.7,0-1.1,0.7-1.1,1.2l0,8.8c0,0.5,0.5,1.2,1.2,1.2l3.6,0L40.6,27.6z" class="st7"/><polygon points="31.1 27.6 37.7 26 44.7 27.6" class="st8"/></svg>