<svg xmlns="http://www.w3.org/2000/svg" xmlns:xlink="http://www.w3.org/1999/xlink" id="Layer_1" x="0" y="0" version="1.1" viewBox="0 0 415 140" xml:space="preserve" style="enable-background:new 0 0 415 140"><style type="text/css">.st10{fill:#2e2e2e}.st23{fill:#929090}.st28{fill:#478aa9}.st31{fill:#5d5f5e}.st33{fill:#f5891f}.st39{fill:#231f20}.st49{fill:#929497}.st50{fill:#a6a8ab}.st74{fill:#cadee6}.st126{fill:#bad80a}.st137{fill:#474748}.st138{fill:#6d6e70}.st139{fill:#1772b8}.st140{fill:#767778}.st141{fill:#a86527}.st142{fill:#048273}.st143{fill:none;stroke:#6d6e70;stroke-miterlimit:10}.st144{opacity:.3;fill:#929090}.st145{fill:#8fd4ef}.st146{fill:#fff;stroke:#b0cdda;stroke-miterlimit:10}.st149{fill:#ffcd49}.st150{fill:#cf5bc0}.st151{fill:#7953a5}.st152{fill:#a3d4ef}.st153{fill:#539b00}</style><g><rect width="80.675" height="1.99" x="92.784" y="131.921" class="st39"/><polygon points="173.459 131.921 92.784 131.921 95.999 128.293 170.245 128.293" class="st50"/><path d="M225.549,124.879H40.771c-1.795,0-3.25-1.455-3.25-3.25V11.25c0-1.795,1.455-3.25,3.25-3.25h184.778 c1.795,0,3.25,1.455,3.25,3.25v110.379C228.799,123.424,227.344,124.879,225.549,124.879z" class="st10"/><rect width="184.925" height="104.709" x="40.583" y="11.444" class="st137"/><rect width="184.925" height="5.817" x="40.583" y="117.531" class="st137"/><rect width="2.909" height="54.192" x="222.446" y="14.965" class="st138"/><rect width="1.225" height="99.045" x="221.375" y="14.965" class="st49"/><rect width="176.199" height="98.433" x="45.175" y="15.731" class="st10"/><rect width="35.209" height="2.602" x="46.859" y="15.578" class="st138"/><rect width="35.209" height="2.602" x="46.859" y="25.222" class="st138"/><rect width="27.096" height="9.338" x="119.727" y="123.961" class="st39"/><g><rect width="1.837" height="1.225" x="155.243" y="17.568" class="st31"/><rect width="1.837" height="1.225" x="155.243" y="20.057" class="st31"/><rect width="1.837" height="1.225" x="155.243" y="22.545" class="st31"/><rect width="1.837" height="1.225" x="155.243" y="25.034" class="st31"/><rect width="1.837" height="1.225" x="155.243" y="27.523" class="st31"/><rect width="1.837" height="1.225" x="155.243" y="30.012" class="st31"/><rect width="1.837" height="1.225" x="155.243" y="32.501" class="st31"/><rect width="1.837" height="1.225" x="155.243" y="34.99" class="st31"/><rect width="1.837" height="1.225" x="155.243" y="37.478" class="st31"/><rect width="1.837" height="1.225" x="155.243" y="39.967" class="st31"/><rect width="1.837" height="1.225" x="155.243" y="42.456" class="st31"/><rect width="1.837" height="1.225" x="155.243" y="44.945" class="st31"/><rect width="1.837" height="1.225" x="155.243" y="47.434" class="st31"/><rect width="1.837" height="1.225" x="155.243" y="49.923" class="st31"/><rect width="1.837" height="1.225" x="155.243" y="52.412" class="st31"/><rect width="1.837" height="1.225" x="155.243" y="54.9" class="st31"/><rect width="1.837" height="1.225" x="155.243" y="57.389" class="st31"/><rect width="1.837" height="1.225" x="155.243" y="59.878" class="st31"/><rect width="1.837" height="1.225" x="155.243" y="62.367" class="st31"/><rect width="1.837" height="1.225" x="155.243" y="64.856" class="st31"/><rect width="1.837" height="1.225" x="155.243" y="67.345" class="st31"/><rect width="1.837" height="1.225" x="155.243" y="69.833" class="st31"/><rect width="1.837" height="1.225" x="155.243" y="72.322" class="st31"/><rect width="1.837" height="1.225" x="155.243" y="74.811" class="st31"/><rect width="1.837" height="1.225" x="155.243" y="77.3" class="st31"/><rect width="1.837" height="1.225" x="155.243" y="79.789" class="st31"/><rect width="1.837" height="1.225" x="155.243" y="82.278" class="st31"/><rect width="1.837" height="1.225" x="155.243" y="84.767" class="st31"/><rect width="1.837" height="1.225" x="155.243" y="87.255" class="st31"/><rect width="1.837" height="1.225" x="155.243" y="89.744" class="st31"/><rect width="1.837" height="1.225" x="155.243" y="92.233" class="st31"/><rect width="1.837" height="1.225" x="155.243" y="94.722" class="st31"/></g><rect width="1.837" height="1.225" x="157.998" y="17.568" class="st139"/><rect width="1.837" height="1.225" x="157.998" y="20.057" class="st139"/><rect width="1.837" height="1.225" x="157.998" y="22.545" class="st139"/><rect width="1.837" height="1.225" x="157.998" y="25.034" class="st139"/><rect width="25.335" height="1.225" x="161.213" y="17.568" class="st31"/><rect width="15.155" height="1.225" x="161.213" y="20.057" class="st31"/><rect width="21.011" height="1.225" x="161.213" y="22.545" class="st31"/><rect width="11.711" height="1.225" x="161.213" y="25.034" class="st31"/><rect width="1.837" height="1.225" x="87.733" y="17.568" class="st139"/><rect width="1.837" height="1.225" x="87.733" y="20.057" class="st139"/><rect width="1.837" height="1.225" x="87.733" y="22.545" class="st139"/><rect width="1.837" height="1.225" x="50.533" y="20.057" class="st139"/><rect width="1.837" height="1.225" x="50.533" y="22.545" class="st139"/><rect width="1.837" height="1.225" x="87.733" y="25.034" class="st139"/><rect width="25.335" height="1.225" x="90.947" y="17.568" class="st31"/><rect width="15.155" height="1.225" x="90.947" y="20.057" class="st31"/><rect width="21.011" height="1.225" x="90.947" y="22.545" class="st31"/><rect width="11.711" height="1.225" x="90.947" y="25.034" class="st31"/><rect width="23.422" height="1.225" x="158.055" y="30.012" class="st23"/><rect width="16.763" height="1.225" x="182.97" y="30.012" class="st140"/><rect width="23.307" height="1.225" x="158.055" y="32.501" class="st23"/><rect width="9.07" height="1.225" x="158.055" y="34.99" class="st23"/><rect width="9.07" height="1.225" x="158.055" y="37.478" class="st23"/><rect width="9.07" height="1.225" x="158.055" y="39.967" class="st23"/><rect width="27.211" height="1.225" x="168.503" y="34.99" class="st141"/><rect width="48.451" height="1.225" x="168.503" y="37.478" class="st141"/><rect width="27.211" height="1.225" x="168.503" y="39.967" class="st141"/><rect width="3.789" height="1.225" x="196.977" y="39.967" class="st139"/><rect width="1.837" height="1.225" x="157.998" y="42.456" class="st31"/><rect width="26.981" height="1.225" x="157.998" y="44.945" class="st142"/><rect width="33.755" height="1.225" x="157.998" y="47.434" class="st142"/><rect width="30.081" height="1.225" x="157.998" y="49.923" class="st31"/><rect width="33.525" height="1.225" x="157.998" y="52.412" class="st31"/><rect width="37.429" height="1.225" x="157.998" y="54.9" class="st31"/><rect width="1.837" height="1.225" x="163.509" y="57.389" class="st142"/><rect width="1.837" height="1.225" x="163.509" y="59.878" class="st142"/><rect width="1.837" height="1.225" x="163.509" y="62.367" class="st142"/><rect width="11.022" height="1.225" x="169.02" y="57.389" class="st142"/><rect width="11.022" height="1.225" x="169.02" y="59.878" class="st142"/><rect width="3.789" height="1.225" x="166.743" y="62.367" class="st142"/><rect width="23.422" height="1.225" x="87.79" y="30.012" class="st23"/><rect width="16.763" height="1.225" x="112.704" y="30.012" class="st140"/><rect width="23.307" height="1.225" x="87.79" y="32.501" class="st23"/><rect width="9.07" height="1.225" x="87.79" y="34.99" class="st23"/><rect width="9.07" height="1.225" x="87.79" y="37.478" class="st23"/><rect width="9.07" height="1.225" x="87.79" y="39.967" class="st23"/><rect width="27.211" height="1.225" x="98.238" y="34.99" class="st141"/><rect width="48.451" height="1.225" x="98.238" y="37.478" class="st141"/><rect width="27.211" height="1.225" x="98.238" y="39.967" class="st141"/><rect width="3.789" height="1.225" x="126.712" y="39.967" class="st139"/><rect width="1.837" height="1.225" x="87.733" y="42.456" class="st31"/><rect width="26.981" height="1.225" x="87.733" y="44.945" class="st142"/><rect width="33.755" height="1.225" x="87.733" y="47.434" class="st142"/><rect width="30.081" height="1.225" x="87.733" y="49.923" class="st31"/><rect width="33.525" height="1.225" x="87.733" y="52.412" class="st31"/><rect width="37.429" height="1.225" x="87.733" y="54.9" class="st31"/><rect width="1.837" height="1.225" x="93.244" y="57.389" class="st142"/><rect width="1.837" height="1.225" x="93.244" y="59.878" class="st142"/><rect width="1.837" height="1.225" x="93.244" y="62.367" class="st142"/><rect width="11.022" height="1.225" x="98.755" y="57.389" class="st142"/><rect width="11.022" height="1.225" x="98.755" y="59.878" class="st142"/><rect width="3.789" height="1.225" x="96.478" y="62.367" class="st142"/><rect width="42.366" height="1.225" x="163.509" y="64.856" class="st31"/><rect width="31.574" height="1.225" x="166.724" y="67.345" class="st31"/><rect width="45.466" height="1.225" x="166.724" y="69.833" class="st31"/><rect width="31.574" height="1.225" x="166.724" y="72.322" class="st31"/><rect width="19.977" height="1.225" x="169.939" y="74.811" class="st31"/><rect width="2.258" height="1.225" x="167.183" y="77.3" class="st31"/><rect width="1.837" height="1.225" x="157.998" y="82.278" class="st31"/><rect width="1.837" height="1.225" x="163.968" y="79.789" class="st31"/><rect width="1.837" height="1.225" x="161.213" y="82.278" class="st31"/><rect width="1.837" height="1.225" x="157.998" y="87.255" class="st139"/><rect width="18.6" height="1.225" x="161.213" y="87.255" class="st31"/><rect width="8.611" height="1.225" x="180.961" y="87.255" class="st139"/><rect width="1.837" height="1.225" x="161.213" y="89.744" class="st139"/><rect width="1.837" height="1.225" x="161.213" y="92.233" class="st139"/><rect width="23.192" height="1.225" x="164.428" y="89.744" class="st31"/><rect width="23.192" height="1.225" x="164.428" y="92.233" class="st31"/><rect width="1.837" height="1.225" x="157.998" y="94.722" class="st31"/><rect width="42.366" height="1.225" x="93.244" y="64.856" class="st31"/><rect width="31.574" height="1.225" x="96.458" y="67.345" class="st31"/><rect width="45.466" height="1.225" x="96.458" y="69.833" class="st31"/><rect width="31.574" height="1.225" x="96.458" y="72.322" class="st31"/><rect width="19.977" height="1.225" x="99.673" y="74.811" class="st31"/><rect width="2.258" height="1.225" x="96.918" y="77.3" class="st31"/><rect width="1.837" height="1.225" x="87.733" y="82.278" class="st31"/><rect width="1.837" height="1.225" x="93.703" y="79.789" class="st31"/><rect width="1.837" height="1.225" x="90.947" y="82.278" class="st31"/><rect width="1.837" height="1.225" x="87.733" y="87.255" class="st139"/><rect width="18.6" height="1.225" x="90.947" y="87.255" class="st31"/><rect width="8.611" height="1.225" x="110.695" y="87.255" class="st139"/><rect width="1.837" height="1.225" x="90.947" y="89.744" class="st139"/><rect width="1.837" height="1.225" x="90.947" y="92.233" class="st139"/><rect width="23.192" height="1.225" x="94.162" y="89.744" class="st31"/><rect width="23.192" height="1.225" x="94.162" y="92.233" class="st31"/><rect width="1.837" height="1.225" x="87.733" y="94.722" class="st31"/><g><rect width="1.837" height="1.225" x="84.518" y="17.108" class="st31"/><rect width="1.837" height="1.225" x="84.518" y="19.597" class="st31"/><rect width="1.837" height="1.225" x="84.518" y="22.086" class="st31"/><rect width="1.837" height="1.225" x="84.518" y="24.575" class="st31"/><rect width="1.837" height="1.225" x="84.518" y="27.064" class="st31"/><rect width="1.837" height="1.225" x="84.518" y="29.553" class="st31"/><rect width="1.837" height="1.225" x="84.518" y="32.042" class="st31"/><rect width="1.837" height="1.225" x="84.518" y="34.53" class="st31"/><rect width="1.837" height="1.225" x="84.518" y="37.019" class="st31"/><rect width="1.837" height="1.225" x="84.518" y="39.508" class="st31"/><rect width="1.837" height="1.225" x="84.518" y="41.997" class="st31"/><rect width="1.837" height="1.225" x="84.518" y="44.486" class="st31"/><rect width="1.837" height="1.225" x="84.518" y="46.975" class="st31"/><rect width="1.837" height="1.225" x="84.518" y="49.463" class="st31"/><rect width="1.837" height="1.225" x="84.518" y="51.952" class="st31"/><rect width="1.837" height="1.225" x="84.518" y="54.441" class="st31"/><rect width="1.837" height="1.225" x="84.518" y="56.93" class="st31"/><rect width="1.837" height="1.225" x="84.518" y="59.419" class="st31"/><rect width="1.837" height="1.225" x="84.518" y="61.908" class="st31"/><rect width="1.837" height="1.225" x="84.518" y="64.397" class="st31"/><rect width="1.837" height="1.225" x="84.518" y="66.885" class="st31"/><rect width="1.837" height="1.225" x="84.518" y="69.374" class="st31"/><rect width="1.837" height="1.225" x="84.518" y="71.863" class="st31"/><rect width="1.837" height="1.225" x="84.518" y="74.352" class="st31"/><rect width="1.837" height="1.225" x="84.518" y="76.841" class="st31"/><rect width="1.837" height="1.225" x="84.518" y="79.33" class="st31"/><rect width="1.837" height="1.225" x="84.518" y="81.818" class="st31"/><rect width="1.837" height="1.225" x="84.518" y="84.307" class="st31"/><rect width="1.837" height="1.225" x="84.518" y="86.796" class="st31"/><rect width="1.837" height="1.225" x="84.518" y="89.285" class="st31"/><rect width="1.837" height="1.225" x="84.518" y="91.774" class="st31"/><rect width="1.837" height="1.225" x="84.518" y="94.263" class="st31"/></g><rect width="15.155" height="1.225" x="53.748" y="20.057" class="st31"/><rect width="21.011" height="1.225" x="53.748" y="22.545" class="st31"/><rect width="1.837" height="1.225" x="47.319" y="19.597" class="st31"/><rect width="25.335" height="1.225" x="90.947" y="13.32" class="st31"/><rect width="4.21" height="1.225" x="84.518" y="13.32" class="st31"/><rect width="1.837" height="1.225" x="47.319" y="13.168" class="st31"/><rect width="1.837" height="1.225" x="47.319" y="22.086" class="st31"/><rect width="1.837" height="1.225" x="47.319" y="29.553" class="st31"/><rect width="1.837" height="1.225" x="47.319" y="32.042" class="st31"/><rect width="1.837" height="1.225" x="47.319" y="34.53" class="st31"/><rect width="11.941" height="1.225" x="50.533" y="29.553" class="st31"/><rect width="11.941" height="1.225" x="50.533" y="32.042" class="st31"/><rect width="11.941" height="1.225" x="50.533" y="34.53" class="st31"/><rect width="2.181" height="2.181" x="41.999" y="13.626" class="st31"/><rect width="2.181" height="2.181" x="41.999" y="23.729" class="st31" transform="matrix(0.7071 0.7071 -0.7071 0.7071 30.1711 -23.1993)"/><circle cx="43.147" cy="19.366" r="1.263" class="st31"/><circle cx="43.147" cy="29.47" r="1.263" class="st31"/><rect width="1.148" height="1.225" x="212.19" y="13.064" class="st31"/><rect width="1.148" height="1.225" x="214.945" y="13.064" class="st31"/><rect width="1.148" height="1.225" x="217.701" y="13.064" class="st31"/><rect width="1.148" height="1.225" x="220.456" y="13.064" class="st31"/><rect width="1.148" height="1.225" x="223.212" y="13.064" class="st31"/><rect width="65.214" height="2.143" x="157.386" y="14.965" class="st50"/><rect width="65.214" height="2.143" x="87.426" y="26.294" class="st50"/><rect width=".933" height="53.732" x="151.753" y="15.271" class="st138"/><line x1="152.686" x2="152.686" y1="15.271" y2="114.278" class="st143"/><polygon points="188.921 15.118 41.884 87.375 41.884 115.082 85.395 115.082 85.436 114.164 222.599 114.317 222.599 14.965" class="st144"/><rect width="184.925" height="2.143" x="40.583" y="114.01" class="st139"/></g><polygon points="295.748 114.052 282.374 90.887 295.748 67.721 322.497 67.721 335.871 90.887 322.497 114.052" class="st145"/><polygon points="254.374 90.298 241 67.133 254.374 43.967 281.123 43.967 294.498 67.133 281.123 90.298" class="st74"/><polygon points="343.22 100.133 324.167 67.133 343.22 34.133 381.325 34.133 400.377 67.133 381.325 100.133" class="st146"/><polygon points="295.698 66.33 282.323 43.165 295.698 20 322.447 20 335.821 43.165 322.447 66.33" class="st74"/><rect width="12" height="12" x="348.272" y="37.133" class="st149"/><rect width="12" height="12" x="364.272" y="37.133" class="st33"/><rect width="12" height="12" x="348.272" y="53.133" class="st150"/><rect width="12" height="12" x="364.272" y="53.133" class="st151"/><rect width="12" height="12" x="348.272" y="69.133" class="st152"/><rect width="12" height="12" x="364.272" y="69.133" class="st28"/><rect width="12" height="12" x="348.272" y="85.133" class="st126"/><rect width="12" height="12" x="364.272" y="85.133" class="st153"/><g><path d="M261.387,78.352h-0.867c-1.508,0-2.629-0.354-3.363-1.061s-1.102-1.779-1.102-3.217v-4.031 c0-0.383-0.043-0.725-0.129-1.025s-0.236-0.555-0.451-0.762s-0.5-0.365-0.855-0.475s-0.803-0.164-1.342-0.164h-0.504v-1.629h0.504 c0.57,0,1.035-0.047,1.395-0.141s0.641-0.236,0.844-0.428s0.344-0.436,0.422-0.732s0.117-0.648,0.117-1.055v-2.777 c0-0.656,0.078-1.248,0.234-1.775s0.412-0.977,0.768-1.348s0.816-0.656,1.383-0.855s1.26-0.299,2.08-0.299h0.867v1.641h-0.691 c-1.813,0-2.719,0.879-2.719,2.637v2.73c0,1.906-0.824,2.98-2.473,3.223c1.664,0.164,2.496,1.234,2.496,3.211v4.008 c0,1.789,0.898,2.684,2.695,2.684h0.691V78.352z"/><path d="M274.551,56.578h0.867c1.508,0,2.629,0.354,3.363,1.061s1.102,1.779,1.102,3.217v2.707c0,0.383,0.043,0.725,0.129,1.025 s0.236,0.555,0.451,0.762s0.502,0.365,0.861,0.475s0.809,0.164,1.348,0.164h0.504v1.629h-0.504c-0.57,0-1.037,0.047-1.4,0.141 s-0.646,0.236-0.85,0.428s-0.344,0.436-0.422,0.732s-0.117,0.648-0.117,1.055v4.102c0,0.656-0.078,1.248-0.234,1.775 s-0.41,0.977-0.762,1.348s-0.813,0.656-1.383,0.855s-1.266,0.299-2.086,0.299h-0.867v-1.641h0.703c1.805,0,2.707-0.879,2.707-2.637 V70.02c0-1.906,0.824-2.977,2.473-3.211c-1.664-0.18-2.496-1.254-2.496-3.223v-2.684c0-1.789-0.895-2.684-2.684-2.684h-0.703 V56.578z"/></g><g><path d="M302.133,48.523l-1.277,1.289l-7.875-6.574l7.875-6.574l1.277,1.301l-6.387,5.25L302.133,48.523z"/><path d="M315.415,37.965l1.266-1.301l7.875,6.574l-7.875,6.574l-1.266-1.289l6.387-5.262L315.415,37.965z"/></g><g><path d="M309.453,97.375h-2.273l-1.066-3.34h-6.375l-1.078,3.34h-2.168l5.086-15.316h2.859L309.453,97.375z M305.516,92.172 l-2.59-8.191l-2.59,8.191H305.516z"/><path d="M319.004,97.375l-0.047-1.582c-0.641,0.633-1.291,1.09-1.951,1.371s-1.354,0.422-2.08,0.422 c-0.672,0-1.246-0.086-1.723-0.258s-0.869-0.408-1.178-0.709s-0.535-0.654-0.68-1.061s-0.217-0.848-0.217-1.324 c0-1.18,0.439-2.104,1.318-2.771s2.178-1.002,3.896-1.002h2.438V89.43c0-0.695-0.223-1.252-0.668-1.67s-1.125-0.627-2.039-0.627 c-0.664,0-1.318,0.074-1.963,0.223s-1.311,0.359-1.998,0.633v-1.84c0.258-0.094,0.545-0.186,0.861-0.275s0.65-0.17,1.002-0.24 s0.719-0.127,1.102-0.17s0.77-0.064,1.16-0.064c0.711,0,1.352,0.078,1.922,0.234s1.053,0.395,1.447,0.715s0.697,0.723,0.908,1.207 s0.316,1.055,0.316,1.711v8.109H319.004z M318.781,92.02h-2.59c-0.508,0-0.945,0.051-1.313,0.152s-0.668,0.246-0.902,0.434 s-0.408,0.412-0.521,0.674s-0.17,0.557-0.17,0.885c0,0.227,0.035,0.443,0.105,0.65s0.184,0.391,0.34,0.551s0.359,0.287,0.609,0.381 s0.555,0.141,0.914,0.141c0.469,0,1.006-0.143,1.611-0.428s1.244-0.736,1.916-1.354V92.02z"/></g></svg>