<svg xmlns="http://www.w3.org/2000/svg" xmlns:xlink="http://www.w3.org/1999/xlink" id="Layer_1" x="0" y="0" version="1.1" viewBox="0 0 415 140" xml:space="preserve" style="enable-background:new 0 0 415 140"><style type="text/css">.st1{fill:#b2d7f0}.st3{fill:#447995}.st6{fill:#fff}.st11{fill:#7cabc2}.st18{fill:#395b71}.st26{fill:#757575}.st38{fill:#fe8b0c}.st39{fill:#231f20}.st53{fill:#acacac}.st80{fill:#181717}.st81{fill:#f3af21}.st82,.st83{fill:none;stroke:#5d5d5d;stroke-width:.8345;stroke-miterlimit:10}.st83{stroke-width:1.3526}.st84{fill-rule:evenodd;clip-rule:evenodd;fill:#7db912}</style><g><path d="M297.085,42.452c-1.794-21.47-19.243-38.321-40.517-38.321c-15.765,0-29.425,9.259-36.178,22.789 c-6.301-3.943-13.694-6.214-21.602-6.214c-19.188,0-35.339,13.372-40.205,31.573c-3.683-1.181-7.606-1.826-11.681-1.826 c-21.104,0-38.212,17.108-38.212,38.212c0,15.326,9.026,28.537,22.049,34.626c3.636,1.515,6.507,2.795,11.892,3.342 c0.319,0.035,0.639,0.064,0.96,0.092c5.503,0.485,13.064,0.562,24.448,0.562h123.609c2.743,0,5.423-0.338,8.006-0.96 c18.999-3.782,33.351-21.021,33.351-41.727C333.004,62.971,317.343,45.128,297.085,42.452z" class="st1"/><g><path d="M313.791,132.615h-91.986c-2.389,0-4.326-1.937-4.326-4.326c0-2.389,1.937-4.326,4.326-4.326h91.986 c2.389,0,4.326,1.937,4.326,4.326C318.118,130.678,316.181,132.615,313.791,132.615z" class="st53"/></g><g><g><g><g><polygon points="275.332 126.539 258.531 126.494 264.665 117.591 269.247 117.604" class="st80"/><rect width="17.819" height="8.16" x="258.053" y="110.955" class="st39" transform="matrix(1 0.0027 -0.0027 1 0.3129 -0.7234)"/><path d="M267.212,23.257l0-0.167c0,0-0.024,0.031-0.064,0.083c-0.039-0.052-0.063-0.083-0.063-0.083l0,0.167 c-1.766,2.314-23.377,31.094-23.438,53.665c-0.064,23.532,11.096,38.744,11.096,38.744l12.092,0.033l0.127,0l12.091,0.033 c0,0,11.241-15.151,11.305-38.683C290.419,54.478,268.964,25.581,267.212,23.257z" class="st3"/><path d="M252.789,96.577c0,0-18.685,4.808-18.084,15.356s2.405,18.85,2.405,18.85l3.416-0.277 c0,0-0.509-12.353,4.171-17.235c2.828-2.95,10.758-5.168,10.758-5.168L252.789,96.577z" class="st3"/><path d="M281.912,96.656c0,0,18.659,4.909,18.001,15.453c-0.658,10.544-2.507,18.837-2.507,18.837l-3.414-0.295 c0,0,0.576-12.35-4.078-17.257c-2.812-2.965-10.73-5.226-10.73-5.226L281.912,96.656z" class="st18"/><path d="M267.212,23.257l0-0.167c0,0-0.024,0.031-0.064,0.083c-0.039-0.052-0.063-0.083-0.063-0.083l0,0.167 c0,0-0.004,0.006-0.006,0.008l-0.251,92.435l0.006,0l0.127,0l12.091,0.033c0,0,11.241-15.151,11.305-38.683 C290.419,54.478,268.964,25.581,267.212,23.257z" class="st18"/><path d="M283.866,51.501c-6.45-14.523-15.539-26.766-16.655-28.244l0-0.167c0,0-0.024,0.031-0.064,0.083 c-0.039-0.052-0.063-0.083-0.063-0.083l0,0.167c-1.124,1.472-10.279,13.666-16.808,28.153L283.866,51.501z" class="st81"/><path d="M266.786,51.455l17.08,0.046c-6.45-14.523-15.539-26.766-16.655-28.244l0-0.167 c0,0-0.024,0.031-0.064,0.083c-0.039-0.052-0.063-0.083-0.063-0.083l0,0.167c-0.052,0.068-0.138,0.182-0.222,0.294 L266.786,51.455z" class="st38"/></g></g></g><path d="M259.267,63.182h-13.7c-1.066,3.927-1.697,8.754-1.697,13.978c0,5.224,0.631,10.052,1.697,13.978h13.7 c-1.066-3.927-1.697-8.754-1.697-13.978C257.57,71.936,258.201,67.108,259.267,63.182z" class="st39"/><path d="M232.689,80.289h-3.755c-0.461,0-0.835-0.374-0.835-0.835v-4.381c0-0.461,0.374-0.835,0.835-0.835h3.755 c0.461,0,0.835,0.374,0.835,0.835v4.381C233.524,79.916,233.15,80.289,232.689,80.289z" class="st82"/><path d="M245.567,63.182h-13.352c-1.066,3.927-1.697,8.754-1.697,13.978c0,5.224,0.631,10.052,1.697,13.978h13.352 c-1.066-3.927-1.697-8.754-1.697-13.978C243.87,71.936,244.5,67.108,245.567,63.182z" class="st3"/></g><g><rect width="27.454" height="20.689" x="192.335" y="81.081" class="st11" transform="matrix(0.9842 -0.1768 0.1768 0.9842 -12.917 37.8685)"/><polygon points="218.234 81.544 191.212 86.398 194.429 88.634 218.723 84.271" class="st18"/><rect width="31.604" height="7.443" x="188.297" y="76.953" class="st11" transform="matrix(0.9842 -0.1768 0.1768 0.9842 -11.0473 37.3521)"/></g><g><rect width="27.454" height="20.689" x="144.767" y="90.291" class="st11" transform="matrix(0.9842 -0.1768 0.1768 0.9842 -15.2944 29.6043)"/><polygon points="170.666 90.754 143.645 95.608 146.861 97.845 171.156 93.481" class="st18"/><rect width="31.604" height="7.443" x="140.729" y="86.163" class="st11" transform="matrix(0.9842 -0.1768 0.1768 0.9842 -13.4247 29.0879)"/></g><g><rect width="27.454" height="20.689" x="97.152" y="98.821" class="st11" transform="matrix(0.9842 -0.1768 0.1768 0.9842 -17.5522 21.321)"/><polygon points="123.051 99.284 96.029 104.137 99.246 106.374 123.54 102.01" class="st18"/><rect width="31.604" height="7.443" x="93.114" y="94.693" class="st11" transform="matrix(0.9842 -0.1768 0.1768 0.9842 -15.6826 20.8046)"/></g><g><g><path d="M236.662,106.819L89.97,133.329c-2.757,0.495-5.394-1.338-5.889-4.096 c-0.495-2.757,1.338-5.394,4.096-5.889l146.693-26.51c2.757-0.495,5.394,1.338,5.889,4.096S239.42,106.323,236.662,106.819z" class="st53"/></g><g><path d="M236.662,106.819L89.97,133.329c-2.757,0.495-5.394-1.338-5.889-4.096 c-0.495-2.757,1.338-5.394,4.096-5.889l146.693-26.51c2.757-0.495,5.394,1.338,5.889,4.096S239.42,106.323,236.662,106.819z" class="st83"/></g><g><g><ellipse cx="235.796" cy="101.821" class="st26" rx="3.19" ry="3.19" transform="matrix(0.9842 -0.1768 0.1768 0.9842 -14.2865 43.2886)"/><ellipse cx="219.542" cy="104.766" class="st26" rx="3.19" ry="3.19" transform="matrix(0.9842 -0.1768 0.1768 0.9842 -15.063 40.4616)"/><ellipse cx="203.289" cy="107.71" class="st26" rx="3.19" ry="3.19" transform="matrix(0.9842 -0.1768 0.1768 0.9842 -15.8395 37.6347)"/><ellipse cx="187.035" cy="110.654" class="st26" rx="3.19" ry="3.19" transform="matrix(0.9842 -0.1768 0.1768 0.9842 -16.6161 34.8077)"/><ellipse cx="170.782" cy="113.599" class="st26" rx="3.19" ry="3.19" transform="matrix(0.9842 -0.1768 0.1768 0.9842 -17.3926 31.9807)"/><ellipse cx="154.528" cy="116.543" class="st26" rx="3.19" ry="3.19" transform="matrix(0.9842 -0.1768 0.1768 0.9842 -18.1691 29.1537)"/><ellipse cx="138.275" cy="119.488" class="st26" rx="3.19" ry="3.19" transform="matrix(0.9842 -0.1768 0.1768 0.9842 -18.9456 26.3268)"/><ellipse cx="122.021" cy="122.432" class="st26" rx="3.19" ry="3.19" transform="matrix(0.9842 -0.1768 0.1768 0.9842 -19.7222 23.4998)"/><ellipse cx="105.768" cy="125.377" class="st26" rx="3.19" ry="3.19" transform="matrix(0.9842 -0.1768 0.1768 0.9842 -20.4987 20.6728)"/><ellipse cx="89.515" cy="128.321" class="st26" rx="3.19" ry="3.19" transform="matrix(0.9842 -0.1768 0.1768 0.9842 -21.2752 17.8459)"/></g></g></g><g><circle cx="92.705" cy="95.722" r="6.397" class="st84"/><g><polygon points="91.893 99.63 90.648 99.603 88.454 96.312 89.718 95.469 91.309 97.856 95.73 91.813 96.956 92.71" class="st6"/></g></g><g><circle cx="140.912" cy="87.131" r="6.397" class="st84"/><g><polygon points="140.1 91.039 138.855 91.012 136.661 87.721 137.925 86.878 139.516 89.265 143.937 83.222 145.163 84.119" class="st6"/></g></g><g><circle cx="187.888" cy="77.86" r="6.397" class="st84"/><g><polygon points="187.076 81.769 185.831 81.741 183.637 78.45 184.901 77.608 186.492 79.994 190.913 73.952 192.139 74.849" class="st6"/></g></g></g></svg>