<svg xmlns="http://www.w3.org/2000/svg" xmlns:xlink="http://www.w3.org/1999/xlink" id="Layer_1" x="0" y="0" version="1.1" viewBox="0 0 415 140" xml:space="preserve" style="enable-background:new 0 0 415 140"><style type="text/css">.st6{fill:#fff}.st11{fill:#7cabc2}.st33{fill:#f5891f}.st36{clip-path:url(#SVGID_4_)}.st41{fill:none;stroke:#909090;stroke-miterlimit:10;stroke-dasharray:2,2}.st42{fill-rule:evenodd;clip-rule:evenodd;fill:#478aa9}.st45{fill:#7db912}</style><g><polyline points="91.983 105.556 130.27 34.677 187.685 99.851 241.406 51.615 308.776 104.88 323.991 28.652 251.032 49.303" class="st41"/><line x1="315.759" x2="130.27" y1="104.88" y2="34.677" class="st41"/><polyline points="85.185 108.835 192.001 102.28 330.985 27.686" class="st41"/><line x1="232.161" x2="127.361" y1="49.303" y2="34.677" class="st41"/><line x1="298.468" x2="200.218" y1="104.88" y2="95.711" class="st41"/><line x1="79.518" x2="241.406" y1="110.034" y2="51.615" class="st41"/><g><g><circle cx="309.735" cy="104.966" r="26.409" class="st42"/></g><g><g><g><circle cx="303.622" cy="104.88" r="5.154" class="st6"/><path d="M308.924,109.302c-1.267,1.517-3.171,2.484-5.303,2.484c-2.107,0-3.99-0.946-5.257-2.433 c-4.791,1.098-4.271,5.705-4.072,9.337c0.041,0.754,0.659,1.343,1.414,1.343h16.111c0.755,0,1.372-0.589,1.414-1.343 C313.435,114.999,313.968,110.301,308.924,109.302z" class="st6"/></g></g><g><defs><path id="SVGID_7_" d="M302.835,98.092c4.148-0.199,7.565,3.086,7.565,6.172c0,4.64-2.776,7.48-6.017,7.48 c-3.241,0,24.299,1.246,24.299,1.246l-2.119-26.279l-22.801,0.664L302.835,98.092z"/></defs><clipPath id="SVGID_2_"><use xlink:href="#SVGID_7_" style="overflow:visible"/></clipPath><g style="clip-path:url(#SVGID_2_)"><g><circle cx="316.832" cy="93.04" r="5.154" class="st6"/><path d="M322.134,97.463c-1.267,1.517-3.171,2.484-5.303,2.484c-2.107,0-3.99-0.946-5.257-2.433 c-4.791,1.098-4.271,5.705-4.072,9.337c0.041,0.754,0.659,1.343,1.414,1.343h16.111c0.755,0,1.372-0.589,1.414-1.343 C326.645,103.16,327.179,98.462,322.134,97.463z" class="st6"/></g></g></g></g></g><g><g><circle cx="131.229" cy="34.763" r="26.409" class="st42"/></g><g><g><g><circle cx="125.116" cy="34.677" r="5.154" class="st6"/><path d="M130.419,39.1c-1.267,1.517-3.171,2.484-5.303,2.484c-2.107,0-3.99-0.946-5.257-2.433 c-4.791,1.098-4.271,5.705-4.072,9.337c0.041,0.754,0.659,1.343,1.414,1.343h16.111c0.755,0,1.372-0.589,1.414-1.343 C134.929,44.797,135.463,40.099,130.419,39.1z" class="st6"/></g></g><g><defs><path id="SVGID_9_" d="M124.33,27.89c4.148-0.199,7.565,3.086,7.565,6.172c0,4.64-2.776,7.48-6.017,7.48 c-3.241,0,24.299,1.246,24.299,1.246l-2.119-26.279l-22.801,0.664L124.33,27.89z"/></defs><clipPath id="SVGID_4_"><use xlink:href="#SVGID_9_" style="overflow:visible"/></clipPath><g class="st36"><g><circle cx="138.326" cy="22.838" r="5.154" class="st6"/><path d="M143.629,27.26c-1.267,1.517-3.171,2.484-5.303,2.484c-2.107,0-3.99-0.946-5.257-2.433 c-4.791,1.098-4.271,5.705-4.072,9.337c0.041,0.754,0.659,1.343,1.414,1.343h16.111c0.755,0,1.372-0.589,1.414-1.343 C148.139,32.958,148.673,28.259,143.629,27.26z" class="st6"/></g></g></g></g></g><g><circle cx="240.592" cy="49.938" r="20.652" class="st45"/><g><g><circle cx="240.406" cy="41.505" r="6.798" class="st6"/><path d="M247.401,47.338c-1.671,2.001-4.183,3.277-6.995,3.277c-2.779,0-5.263-1.248-6.934-3.21 c-6.319,1.448-5.634,7.526-5.371,12.316c0.055,0.994,0.869,1.771,1.865,1.771h21.251c0.995,0,1.81-0.777,1.865-1.771 C253.351,54.853,254.055,48.656,247.401,47.338z" class="st6"/></g></g></g><g><circle cx="324.177" cy="30.286" r="20.652" class="st33"/><g><g><circle cx="323.991" cy="21.853" r="6.798" class="st6"/><path d="M330.985,27.686c-1.671,2.001-4.183,3.277-6.995,3.277c-2.779,0-5.263-1.248-6.934-3.21 c-6.319,1.448-5.634,7.526-5.371,12.316c0.055,0.994,0.869,1.771,1.865,1.771h21.251c0.995,0,1.81-0.777,1.865-1.771 C336.935,35.201,337.639,29.004,330.985,27.686z" class="st6"/></g></g></g><g><circle cx="92.169" cy="104.88" r="20.652" class="st45"/><g><g><circle cx="91.983" cy="96.447" r="6.798" class="st6"/><path d="M98.978,102.28c-1.671,2.001-4.183,3.277-6.995,3.277c-2.779,0-5.263-1.248-6.934-3.21 c-6.319,1.448-5.634,7.526-5.371,12.316c0.055,0.994,0.869,1.771,1.865,1.771h21.251c0.995,0,1.81-0.777,1.865-1.771 C104.927,109.795,105.631,103.598,98.978,102.28z" class="st6"/></g></g></g><g><circle cx="189.348" cy="102.652" r="30.652" class="st11"/><g><g><circle cx="189.072" cy="90.135" r="10.09" class="st6"/><path d="M199.454,98.793c-2.48,2.971-6.209,4.863-10.381,4.863c-4.125,0-7.811-1.852-10.291-4.764 c-9.379,2.149-8.362,11.17-7.971,18.28c0.081,1.475,1.29,2.629,2.768,2.629h31.542c1.478,0,2.687-1.154,2.768-2.629 C208.284,109.947,209.329,100.749,199.454,98.793z" class="st6"/></g></g></g></g></svg>