<svg xmlns="http://www.w3.org/2000/svg" xmlns:xlink="http://www.w3.org/1999/xlink" id="Layer_1" x="0" y="0" version="1.1" viewBox="0 0 415 140" xml:space="preserve" style="enable-background:new 0 0 415 140"><style type="text/css">.st10{fill:#2e2e2e}.st22{fill:#4889a8}.st23{fill:#929090}.st24{fill:#96bbcd}.st25{fill:#3a5c71}.st26{fill:#757575}.st27{fill:#682a7a}.st28{fill:#478aa9}.st29{fill:#672a79}.st30{fill:#334d63}.st31{fill:#5d5f5e}.st32{fill:#fab516}.st33{fill:#f5891f}.st34{fill:#cb6d29}</style><g><g><g><rect width="3.967" height="19.867" x="269.302" y="35.938" class="st23"/></g><g><rect width="3.967" height="19.867" x="336.745" y="35.938" class="st23"/></g></g><g><g><rect width="24.188" height="24.188" x="261.646" y="29.144" class="st24"/></g><g><rect width="63.22" height="24.188" x="285.45" y="29.144" class="st22"/></g><rect width="20.828" height="1.431" x="263.002" y="40.653" class="st22"/><rect width="20.828" height="1.431" x="263.002" y="45.24" class="st22"/><rect width="20.828" height="1.431" x="263.033" y="36.066" class="st22"/><g><polygon points="288.686 30.769 287.425 30.769 287.425 31.355 288.686 32.844 288.686 51.597 290.173 51.597 290.173 30.769" class="st25"/><polygon points="302.571 51.597 304.059 51.597 304.059 30.769 302.571 30.769 301.311 30.769 301.311 31.355 302.571 32.844" class="st25"/><polygon points="316.456 51.597 317.944 51.597 317.944 30.769 316.456 30.769 315.196 30.769 315.196 31.355 316.456 32.844" class="st25"/><polygon points="330.342 51.597 331.83 51.597 331.83 30.769 330.342 30.769 329.081 30.769 329.081 31.355 330.342 32.844" class="st25"/><polygon points="344.227 30.769 342.967 30.769 342.967 31.355 344.227 32.844 344.227 51.597 345.715 51.597 345.715 30.769" class="st25"/></g></g></g><g><g><rect width="3.967" height="19.867" x="169.816" y="114.615" class="st23"/></g><g><rect width="3.967" height="19.867" x="237.259" y="114.615" class="st23"/></g></g><polygon points="73.808 19.362 73.026 18.581 94.726 1.581 95.312 2.363" class="st26"/><rect width="1.955" height="89.492" x="91.012" y="33.821" class="st26"/><rect width="1.955" height="90.078" x="104.499" y="33.234" class="st26"/><rect width="13.097" height="1.759" x="92.967" y="83.843" class="st26"/><rect width="11.924" height="1.954" x="92.967" y="96.348" class="st26"/><polygon points="91.206 98.107 93.162 98.107 98.831 92.441 104.499 98.107 106.063 98.107 106.063 96.739 100.199 90.877 106.063 85.211 106.063 83.844 104.499 83.844 98.831 89.51 92.966 83.844 91.206 83.844 91.206 84.82 97.462 90.877 91.206 97.13" class="st26"/><rect width="11.924" height="1.759" x="92.967" y="71.142" class="st26"/><polygon points="91.206 85.406 93.162 85.406 98.831 79.74 104.499 85.406 106.063 85.406 106.063 84.233 100.199 78.371 106.063 72.51 106.063 71.142 104.499 71.142 98.831 76.809 92.966 71.142 91.206 71.142 91.206 72.119 97.462 78.371 91.206 84.429" class="st26"/><polygon points="91.206 72.901 93.162 72.901 98.831 67.235 104.499 72.901 106.063 72.901 106.063 71.728 100.199 65.866 106.063 60.005 106.063 58.636 104.499 58.636 98.831 64.303 92.966 58.636 91.206 58.636 91.206 59.613 97.462 65.866 91.206 71.923" class="st26"/><rect width="11.924" height="1.759" x="92.967" y="58.441" class="st26"/><polygon points="91.206 60.199 93.162 60.199 98.831 54.533 104.499 60.199 106.063 60.199 106.063 58.832 100.199 53.165 106.063 47.304 106.063 45.936 104.499 45.936 98.831 51.603 92.966 45.936 91.206 45.936 91.206 46.913 97.462 53.165 91.206 59.223" class="st26"/><rect width="11.924" height="1.759" x="92.967" y="45.74" class="st26"/><rect width="15.443" height="1.954" x="91.011" y="31.867" class="st26"/><polygon points="91.206 47.499 93.162 47.499 98.831 41.833 104.499 47.499 106.063 47.499 106.063 46.326 100.199 40.464 106.063 34.603 106.063 33.234 104.499 33.234 98.831 38.902 92.966 33.234 91.206 33.234 91.206 34.212 97.462 40.464 91.206 46.522" class="st26"/><rect width="11.924" height="1.759" x="92.967" y="109.049" class="st26"/><polygon points="91.206 110.808 93.162 110.808 98.831 104.946 104.499 110.808 106.063 110.808 106.063 109.44 100.199 103.578 106.063 97.716 106.063 96.348 104.499 96.348 98.831 102.21 92.966 96.348 91.206 96.348 91.206 97.325 97.462 103.578 91.206 109.83" class="st26"/><rect width="11.924" height="1.954" x="92.967" y="121.359" class="st27"/><rect width="11.924" height="1.954" x="92.967" y="121.359" class="st26"/><polygon points="91.206 123.118 93.162 123.118 98.831 117.452 104.499 123.118 106.063 123.118 106.063 121.945 100.199 116.083 106.063 110.222 106.063 108.853 104.499 108.853 98.831 114.52 92.966 108.853 91.206 108.853 91.206 109.831 97.462 116.083 91.206 122.14" class="st26"/><rect width="8.406" height="14.459" x="65.012" y="16.235" class="st10"/><polygon points="153.175 11.937 94.92 2.362 95.117 1.386 153.175 10.959" class="st26"/><rect width="1.564" height="17.39" x="93.944" y="1.972" class="st26"/><polygon points="94.53 1.971 95.898 1.581 101.957 18.971 100.199 18.971" class="st26"/><rect width="3.91" height="1.367" x="95.116" y="14.086" class="st26"/><rect width="2.54" height="1.173" x="95.117" y="9.788" class="st26"/><rect width="2.54" height="1.173" x="95.117" y="9.788" class="st26"/><path d="M100.199,19.361h-0.196l-4.887-3.517c-0.196-0.195-0.196-0.391,0-0.586c0.196-0.195,0.391-0.391,0.586-0.195	l4.691,3.517c0.197,0.196,0.391,0.391,0.197,0.586C100.59,19.361,100.393,19.361,100.199,19.361" class="st26"/><path d="M95.508,14.672c-0.197,0-0.197,0-0.392-0.195c-0.196,0-0.196-0.391,0-0.586l2.151-3.127	c0.195-0.195,0.39-0.195,0.586-0.195c0.195,0.195,0.195,0.391,0.195,0.586l-2.15,3.322C95.702,14.477,95.508,14.672,95.508,14.672" class="st26"/><path d="M95.508,19.361c-0.197,0-0.392,0-0.392-0.195c-0.196,0-0.196-0.391,0-0.586l3.714-3.517	c0.196-0.197,0.39-0.197,0.586,0c0.196,0.195,0.196,0.586,0,0.781l-3.714,3.322C95.702,19.361,95.508,19.361,95.508,19.361" class="st26"/><polygon points="107.627 19.753 89.056 19.753 89.056 30.694 107.627 30.694 109.777 23.661" class="st28"/><rect width="2.15" height="6.448" x="99.417" y="21.901" class="st29"/><rect width="2.15" height="6.448" x="99.417" y="21.901" class="st30"/><polygon points="106.846 21.902 103.326 21.902 103.326 28.35 106.649 28.35 107.822 23.856" class="st29"/><polygon points="106.846 21.902 103.326 21.902 103.326 28.35 106.649 28.35 107.822 23.856" class="st30"/><polygon points="117.4 10.959 171.551 10.959 172.724 11.937 117.4 11.937" class="st26"/><polygon points="109.777 18.971 108.213 18.971 117.01 10.96 118.575 10.96" class="st26"/><polygon points="109.777 18.971 108.213 18.971 117.01 10.96 118.575 10.96" class="st26"/><rect width="115.53" height="2.736" x="65.012" y="18.971" class="st28"/><polygon points="178.979 18.971 180.542 18.971 171.551 10.96 170.182 10.96" class="st26"/><g><polygon points="127.371 18.971 125.807 18.971 134.799 10.96 136.168 10.96" class="st26"/><g><polygon points="126.003 18.971 127.371 18.971 118.575 10.96 117.01 10.96" class="st26"/><rect width=".978" height="7.035" x="126.198" y="11.936" class="st26"/><rect width=".783" height="7.035" x="117.4" y="11.936" class="st26"/><polygon points="127.371 18.971 125.807 18.971 134.799 10.96 136.168 10.96" class="st26"/><polygon points="143.597 18.971 145.161 18.971 136.168 10.96 134.799 10.96" class="st26"/><rect width=".781" height="7.035" x="143.988" y="11.936" class="st26"/><rect width=".978" height="7.035" x="134.996" y="11.936" class="st26"/><polygon points="145.161 18.971 143.597 18.971 152.393 10.96 153.956 10.96" class="st26"/><polygon points="162.754 18.971 161.385 18.971 170.182 10.96 171.551 10.96" class="st26"/><polygon points="161.385 18.971 162.754 18.971 153.956 10.96 152.393 10.96" class="st26"/><rect width=".977" height="7.035" x="161.581" y="11.936" class="st26"/><rect width=".783" height="7.035" x="152.784" y="11.936" class="st26"/><rect width=".977" height="7.035" x="170.379" y="11.936" class="st26"/></g></g><rect width=".977" height="7.035" x="170.379" y="11.936" class="st26"/><path d="M96.094,1.971c0,0.586-0.585,0.977-1.173,0.977c-0.586,0-0.978-0.391-0.978-0.977	c0-0.586,0.391-0.977,0.978-0.977C95.508,0.994,96.094,1.385,96.094,1.971" class="st26"/><rect width=".977" height="28.326" x="170.724" y="21.902" class="st26"/><path d="M173.751,17.994c-0.391,0-0.783,0.391-0.783,0.781v0.196h-3.714v-0.196c0-0.39-0.391-0.781-0.978-0.781	c-0.391,0-0.781,0.391-0.781,0.781v0.196v1.758v3.518h7.037v-3.518v-1.758v-0.196C174.532,18.384,174.141,17.994,173.751,17.994" class="st31"/><polygon points="71.769 138.921 125.32 138.921 122.037 122.745 75.052 122.745" class="st10"/><g><g><rect width="24.188" height="24.188" x="162.16" y="107.691" class="st32"/></g><g><rect width="63.22" height="24.188" x="185.964" y="107.691" class="st33"/></g><rect width="20.828" height="1.431" x="163.516" y="119.2" class="st33"/><rect width="20.828" height="1.431" x="163.516" y="123.787" class="st33"/><rect width="20.828" height="1.431" x="163.547" y="114.613" class="st33"/><g><polygon points="189.199 109.316 187.939 109.316 187.939 109.902 189.199 111.391 189.199 130.144 190.687 130.144 190.687 109.316" class="st34"/><polygon points="203.085 130.144 204.573 130.144 204.573 109.316 203.085 109.316 201.824 109.316 201.824 109.902 203.085 111.391" class="st34"/><polygon points="216.97 130.144 218.458 130.144 218.458 109.316 216.97 109.316 215.71 109.316 215.71 109.902 216.97 111.391" class="st34"/><polygon points="230.856 130.144 232.343 130.144 232.343 109.316 230.856 109.316 229.595 109.316 229.595 109.902 230.856 111.391" class="st34"/><polygon points="244.741 109.316 243.481 109.316 243.481 109.902 244.741 111.391 244.741 130.144 246.229 130.144 246.229 109.316" class="st34"/></g></g><g><g><rect width="24.188" height="24.188" x="122.977" y="48.864" class="st24"/></g><g><rect width="63.22" height="24.188" x="146.781" y="48.864" class="st22"/></g><rect width="20.828" height="1.431" x="124.333" y="60.373" class="st22"/><rect width="20.828" height="1.431" x="124.333" y="64.96" class="st22"/><rect width="20.828" height="1.431" x="124.364" y="55.786" class="st22"/><g><polygon points="150.017 50.489 148.756 50.489 148.756 51.075 150.017 52.564 150.017 71.317 151.504 71.317 151.504 50.489" class="st25"/><polygon points="163.902 71.317 165.39 71.317 165.39 50.489 163.902 50.489 162.642 50.489 162.642 51.075 163.902 52.564" class="st25"/><polygon points="177.787 71.317 179.275 71.317 179.275 50.489 177.787 50.489 176.527 50.489 176.527 51.075 177.787 52.564" class="st25"/><polygon points="191.673 71.317 193.161 71.317 193.161 50.489 191.673 50.489 190.412 50.489 190.412 51.075 191.673 52.564" class="st25"/><polygon points="205.558 50.489 204.298 50.489 204.298 51.075 205.558 52.564 205.558 71.317 207.046 71.317 207.046 50.489" class="st25"/></g></g><g><g><g><rect width="3.967" height="19.867" x="269.302" y="88.252" class="st23"/></g><g><rect width="3.967" height="19.867" x="336.745" y="88.252" class="st23"/></g></g><g><g><rect width="24.188" height="24.188" x="261.646" y="81.459" class="st24"/></g><g><rect width="63.22" height="24.188" x="285.45" y="81.459" class="st22"/></g><rect width="20.828" height="1.431" x="263.002" y="92.967" class="st22"/><rect width="20.828" height="1.431" x="263.002" y="97.554" class="st22"/><rect width="20.828" height="1.431" x="263.033" y="88.38" class="st22"/><g><polygon points="288.686 83.083 287.425 83.083 287.425 83.669 288.686 85.159 288.686 103.911 290.173 103.911 290.173 83.083" class="st25"/><polygon points="302.571 103.911 304.059 103.911 304.059 83.083 302.571 83.083 301.311 83.083 301.311 83.669 302.571 85.159" class="st25"/><polygon points="316.456 103.911 317.944 103.911 317.944 83.083 316.456 83.083 315.196 83.083 315.196 83.669 316.456 85.159" class="st25"/><polygon points="330.342 103.911 331.83 103.911 331.83 83.083 330.342 83.083 329.081 83.083 329.081 83.669 330.342 85.159" class="st25"/><polygon points="344.227 83.083 342.967 83.083 342.967 83.669 344.227 85.159 344.227 103.911 345.715 103.911 345.715 83.083" class="st25"/></g></g></g><g><g><g><rect width="3.967" height="19.867" x="269.302" y="114.615" class="st23"/></g><g><rect width="3.967" height="19.867" x="336.745" y="114.615" class="st23"/></g></g><g><g><rect width="24.188" height="24.188" x="261.646" y="107.821" class="st24"/></g><g><rect width="63.22" height="24.188" x="285.45" y="107.821" class="st22"/></g><rect width="20.828" height="1.431" x="263.002" y="119.33" class="st22"/><rect width="20.828" height="1.431" x="263.002" y="123.917" class="st22"/><rect width="20.828" height="1.431" x="263.033" y="114.743" class="st22"/><g><polygon points="288.686 109.446 287.425 109.446 287.425 110.032 288.686 111.521 288.686 130.274 290.173 130.274 290.173 109.446" class="st25"/><polygon points="302.571 130.274 304.059 130.274 304.059 109.446 302.571 109.446 301.311 109.446 301.311 110.032 302.571 111.521" class="st25"/><polygon points="316.456 130.274 317.944 130.274 317.944 109.446 316.456 109.446 315.196 109.446 315.196 110.032 316.456 111.521" class="st25"/><polygon points="330.342 130.274 331.83 130.274 331.83 109.446 330.342 109.446 329.081 109.446 329.081 110.032 330.342 111.521" class="st25"/><polygon points="344.227 109.446 342.967 109.446 342.967 110.032 344.227 111.521 344.227 130.274 345.715 130.274 345.715 109.446" class="st25"/></g></g></g><g><g><g><rect width="3.967" height="19.867" x="269.302" y="62.165" class="st23"/></g><g><rect width="3.967" height="19.867" x="336.745" y="62.165" class="st23"/></g></g><g><g><rect width="24.188" height="24.188" x="261.646" y="55.371" class="st32"/></g><g><rect width="63.22" height="24.188" x="285.45" y="55.371" class="st33"/></g><rect width="20.828" height="1.431" x="263.002" y="66.88" class="st33"/><rect width="20.828" height="1.431" x="263.002" y="71.467" class="st33"/><rect width="20.828" height="1.431" x="263.033" y="62.293" class="st33"/><g><polygon points="288.686 56.996 287.425 56.996 287.425 57.582 288.686 59.071 288.686 77.824 290.173 77.824 290.173 56.996" class="st34"/><polygon points="302.571 77.824 304.059 77.824 304.059 56.996 302.571 56.996 301.311 56.996 301.311 57.582 302.571 59.071" class="st34"/><polygon points="316.456 77.824 317.944 77.824 317.944 56.996 316.456 56.996 315.196 56.996 315.196 57.582 316.456 59.071" class="st34"/><polygon points="330.342 77.824 331.83 77.824 331.83 56.996 330.342 56.996 329.081 56.996 329.081 57.582 330.342 59.071" class="st34"/><polygon points="344.227 56.996 342.967 56.996 342.967 57.582 344.227 59.071 344.227 77.824 345.715 77.824 345.715 56.996" class="st34"/></g></g></g></svg>