<svg xmlns="http://www.w3.org/2000/svg" xmlns:xlink="http://www.w3.org/1999/xlink" id="Layer_1" x="0" y="0" version="1.1" viewBox="0 0 415 140" xml:space="preserve" style="enable-background:new 0 0 415 140"><style type="text/css">.st1{fill:#b2d7f0}.st6{fill:#fff}.st7{fill:#e4edf1}.st10{fill:#2e2e2e}.st11{fill:#7cabc2}.st16{fill:#5d5d5d}.st26{fill:#757575}.st28{fill:#478aa9}.st36{clip-path:url(#SVGID_4_)}.st37{clip-path:url(#SVGID_6_)}.st40{fill:#909090}.st45{fill:#7db912}.st90{fill:none}.st117{fill:#171717}.st130{fill:none;stroke:#bad80a;stroke-width:3.0831;stroke-miterlimit:10}.st132{fill:#ff8c00}.st133{fill:#e73f24}.st134{fill:#f58b23}.st135{fill:#adadad}.st136{fill:#959595}</style><g><path d="M293.672,111.061h-98.805c-9.465,0-15.431-0.074-19.842-0.462c-0.28-0.024-0.566-0.05-0.852-0.083 c-4.578-0.465-7.237-1.575-10.052-2.752l-0.521-0.22c-11.906-5.567-19.6-17.65-19.6-30.782c0-18.732,15.24-33.971,33.972-33.971 c2.38,0,4.742,0.248,7.056,0.739c5.332-14.592,19.041-24.517,34.418-24.517c5.549,0,10.997,1.284,15.95,3.737 c6.583-10.561,17.875-16.986,30.236-16.986c17.617,0,32.724,13.464,35.483,31.113c16.732,3.519,29.042,18.806,29.042,36.635 c0,17.858-12.338,33.282-29.35,36.702C298.453,110.776,296.052,111.061,293.672,111.061z" class="st1"/></g><circle cx="318" cy="104" r="20" class="st6"/><g><g><path d="M296.661,59.601h-73.25c-1.818,0-3.292-1.474-3.292-3.292V15.292c0-1.818,1.474-3.292,3.292-3.292h73.25 c1.818,0,3.292,1.474,3.292,3.292v41.017C299.954,58.127,298.48,59.601,296.661,59.601z" class="st117"/><rect width="74.411" height="38.896" x="222.866" y="14.513" class="st11"/><rect width="74.411" height="38.896" x="222.866" y="14.513" class="st90"/><polygon points="297.188 43.209 275.746 14.513 222.866 14.513 222.866 53.409 297.188 53.409" class="st28"/></g><path d="M208.016,57.717c-0.003,0.054-0.016,0.104-0.016,0.158c0,1.75,1.375,3.168,3.071,3.168h98.719 c1.696,0,3.071-1.418,3.071-3.168c0-0.054-0.013-0.105-0.016-0.158H208.016z" class="st117"/></g><g><g><path d="M318.137,83.007c-11.86,0-21.474,9.613-21.474,21.473c0,11.86,9.615,21.473,21.474,21.473 c11.859,0,21.473-9.613,21.473-21.473C339.611,92.621,329.996,83.007,318.137,83.007z M318.137,120.521 c-8.86,0-16.041-7.181-16.041-16.04c0-8.86,7.182-16.04,16.041-16.04c8.859,0,16.04,7.181,16.04,16.04 C334.178,113.34,326.996,120.521,318.137,120.521z" class="st28"/><path d="M322.717,101.253l3.969-7.562l-1.895-1.352l-5.712,6.35c-2.152-0.464-4.472,0.35-5.833,2.257 c-1.826,2.559-1.232,6.112,1.326,7.938c2.559,1.826,6.113,1.232,7.939-1.327C323.886,105.634,323.889,103.145,322.717,101.253z" class="st10"/><polygon points="326.933 68 309.341 68 309.341 77.056 313.997 77.056 313.997 80.16 322.017 80.16 322.017 77.056 326.933 77.056" class="st28"/><rect width="5.137" height="6.209" x="333.42" y="81.195" class="st28" transform="matrix(0.7072 -0.707 0.707 0.7072 38.7784 262.2345)"/></g><g><defs><path id="SVGID_29_" d="M294.016,104.031c0-6.686,2.721-12.735,7.115-17.104h-55.686l14.582,19.516h34.109 C294.058,105.65,294.016,104.845,294.016,104.031z"/></defs><clipPath id="SVGID_2_"><use xlink:href="#SVGID_29_" style="overflow:visible"/></clipPath><g style="clip-path:url(#SVGID_2_)"><rect width="54.162" height="2.631" x="246.652" y="88.9" class="st40"/></g><g style="clip-path:url(#SVGID_2_)"><rect width="54.162" height="2.631" x="246.652" y="95.479" class="st40"/></g><g style="clip-path:url(#SVGID_2_)"><rect width="54.162" height="2.631" x="246.652" y="102.057" class="st40"/></g></g></g><g><g><g><path d="M191.389,133.668H72.924c-2.94,0-5.324-2.384-5.324-5.324V62.008c0-2.94,2.384-5.324,5.324-5.324h118.465 c2.94,0,5.324,2.384,5.324,5.324v66.336C196.714,131.284,194.33,133.668,191.389,133.668z" class="st117"/><rect width="120.342" height="62.905" x="72.042" y="60.748" class="st26"/><rect width="120.342" height="62.905" x="72.042" y="60.748" class="st90"/><polygon points="192.241 107.157 157.564 60.748 72.042 60.748 72.042 123.653 192.241 123.653" class="st16"/></g><path d="M48.025,130.62C48.02,130.707,48,130.789,48,130.877c0,2.83,2.223,5.123,4.966,5.123H212.62 c2.743,0,4.966-2.294,4.966-5.123c0-0.088-0.02-0.169-0.025-0.256H48.025z" class="st117"/></g><g><defs><path id="SVGID_31_" d="M210.65,118.372H62.397c0,0,27.062-7.844,39.22-20.395c22.851-23.589,48.633-19.61,63.929-1.961 S210.65,118.372,210.65,118.372z"/></defs><clipPath id="SVGID_4_"><use xlink:href="#SVGID_31_" style="overflow:visible"/></clipPath><g class="st36"><line x1="80.831" x2="80.831" y1="117.588" y2="64.64" class="st130"/><line x1="87.449" x2="87.449" y1="117.588" y2="64.64" class="st130"/><line x1="94.067" x2="94.067" y1="117.588" y2="64.64" class="st130"/><line x1="100.686" x2="100.686" y1="117.588" y2="64.64" class="st130"/><line x1="107.304" x2="107.304" y1="117.588" y2="64.64" class="st130"/><line x1="113.923" x2="113.923" y1="117.588" y2="64.64" class="st130"/><line x1="120.541" x2="120.541" y1="117.588" y2="64.64" class="st130"/><line x1="127.16" x2="127.16" y1="117.588" y2="64.64" class="st130"/><line x1="133.778" x2="133.778" y1="117.588" y2="64.64" class="st130"/><line x1="140.397" x2="140.397" y1="117.588" y2="64.64" class="st130"/><line x1="147.015" x2="147.015" y1="117.588" y2="64.64" class="st130"/><line x1="153.633" x2="153.633" y1="117.588" y2="64.64" class="st130"/><line x1="160.252" x2="160.252" y1="117.588" y2="64.64" class="st130"/><line x1="166.87" x2="166.87" y1="117.588" y2="64.64" class="st130"/><line x1="173.489" x2="173.489" y1="117.588" y2="64.64" class="st130"/><line x1="180.107" x2="180.107" y1="117.588" y2="64.64" class="st130"/><line x1="186.726" x2="186.726" y1="117.588" y2="64.64" class="st130"/></g></g><g><defs><path id="SVGID_33_" d="M75.34,72.485c11.766-8.236,21.179-9.413,35.298,12.158s60.792,32.161,73.734,32.945 c12.943,0.784-110.602,2.353-110.602,2.353L75.34,72.485z"/></defs><clipPath id="SVGID_6_"><use xlink:href="#SVGID_33_" style="overflow:visible"/></clipPath><g class="st37"><g><rect width="1.924" height="52.948" x="77.515" y="64.64" class="st132"/></g><g><rect width="1.924" height="52.948" x="84.134" y="64.64" class="st132"/></g><g><rect width="1.924" height="52.948" x="90.752" y="64.64" class="st132"/></g><g><rect width="1.924" height="52.948" x="97.371" y="64.64" class="st132"/></g><g><rect width="1.924" height="52.948" x="103.989" y="64.64" class="st132"/></g><g><rect width="1.924" height="52.948" x="110.608" y="64.64" class="st132"/></g><g><rect width="1.924" height="52.948" x="117.226" y="64.64" class="st132"/></g><g><rect width="1.924" height="52.948" x="123.844" y="64.64" class="st132"/></g><g><rect width="1.924" height="52.948" x="130.463" y="64.64" class="st132"/></g><g><rect width="1.924" height="52.948" x="137.082" y="64.64" class="st132"/></g><g><rect width="1.924" height="52.948" x="143.7" y="64.64" class="st132"/></g><g><rect width="1.924" height="52.948" x="150.318" y="64.64" class="st132"/></g><g><rect width="1.924" height="52.948" x="156.937" y="64.64" class="st132"/></g><g><rect width="1.924" height="52.948" x="163.555" y="64.64" class="st132"/></g><g><rect width="1.924" height="52.948" x="170.174" y="64.64" class="st132"/></g><g><rect width="1.924" height="52.948" x="176.792" y="64.64" class="st132"/></g><g><rect width="1.924" height="52.948" x="183.411" y="64.64" class="st45"/></g></g></g></g><g><polygon points="238.516 28.087 241.332 31.055 241.673 30.726 238.943 27.757 238.516 28.087" class="st133"/><polygon points="238.516 28.087 241.332 31.055 241.673 30.726 238.943 27.757 238.516 28.087" class="st134"/><polygon points="240.052 27.262 241.844 29.406 242.356 28.994 240.479 26.85 240.052 27.262" class="st135"/><polygon points="241.417 26.19 243.123 28.417 243.635 28.087 241.929 25.861 241.417 26.19" class="st135"/><polygon points="242.867 25.201 244.488 27.51 245 27.18 243.379 24.871 242.867 25.201" class="st135"/><polygon points="244.403 24.294 245.854 26.685 246.365 26.355 244.915 23.964 244.403 24.294" class="st135"/><polygon points="245.768 23.139 247.731 26.685 248.242 26.438 246.28 22.892 245.768 23.139" class="st133"/><polygon points="245.768 23.139 247.731 26.685 248.242 26.438 246.28 22.892 245.768 23.139" class="st134"/><polygon points="247.475 22.645 248.754 25.118 249.266 24.871 248.072 22.397 247.475 22.645" class="st135"/><polygon points="249.096 21.985 250.205 24.541 250.802 24.294 249.693 21.738 249.096 21.985" class="st135"/><polygon points="250.802 21.325 251.74 23.964 252.338 23.717 251.314 21.16 250.802 21.325" class="st135"/><polygon points="252.508 20.831 253.276 23.469 253.873 23.304 253.02 20.666 252.508 20.831" class="st135"/><polygon points="254.129 20.088 255.153 23.882 255.665 23.799 254.641 19.924 254.129 20.088" class="st133"/><polygon points="254.129 20.088 255.153 23.882 255.665 23.799 254.641 19.924 254.129 20.088" class="st134"/><polygon points="255.921 19.924 256.518 22.645 257.115 22.562 256.518 19.841 255.921 19.924" class="st135"/><polygon points="257.713 19.676 258.054 22.397 258.736 22.315 258.31 19.594 257.713 19.676" class="st135"/><polygon points="259.419 19.429 259.76 22.15 260.357 22.15 260.101 19.429 259.419 19.429" class="st135"/><polygon points="261.211 19.346 261.381 22.067 261.978 22.067 261.808 19.264 261.211 19.346" class="st135"/><polygon points="263.002 22.975 263.599 22.975 263.599 19.016 263.087 19.016 263.002 22.975" class="st133"/><polygon points="263.002 22.975 263.599 22.975 263.599 19.016 263.087 19.016 263.002 22.975" class="st134"/><polygon points="264.623 22.067 265.22 22.067 265.391 19.346 264.794 19.346 264.623 22.067" class="st135"/><polygon points="266.244 22.15 266.841 22.232 267.183 19.511 266.585 19.429 266.244 22.15" class="st135"/><polygon points="267.865 22.397 268.462 22.48 268.974 19.759 268.377 19.676 267.865 22.397" class="st135"/><polygon points="269.486 22.645 270.083 22.727 270.681 20.088 270.083 19.924 269.486 22.645" class="st135"/><polygon points="270.937 23.882 271.449 23.964 272.472 20.171 271.96 20.088 270.937 23.882" class="st133"/><polygon points="270.937 23.882 271.449 23.964 272.472 20.171 271.96 20.088 270.937 23.882" class="st134"/><polygon points="272.728 23.387 273.24 23.552 274.179 20.913 273.581 20.748 272.728 23.387" class="st135"/><polygon points="275.288 21.325 274.264 23.882 274.861 24.129 275.8 21.49 275.288 21.325" class="st135"/><polygon points="276.909 21.903 275.8 24.459 276.312 24.706 277.506 22.15 276.909 21.903" class="st135"/><polygon points="278.53 22.645 277.25 25.118 277.847 25.366 279.127 22.892 278.53 22.645" class="st135"/><polygon points="280.321 23.139 278.274 26.603 278.786 26.85 280.748 23.387 280.321 23.139" class="st133"/><polygon points="280.321 23.139 278.274 26.603 278.786 26.85 280.748 23.387 280.321 23.139" class="st134"/><polygon points="281.687 24.211 280.151 26.603 280.663 26.85 282.198 24.541 281.687 24.211" class="st135"/><polygon points="283.137 25.118 281.516 27.427 282.028 27.757 283.649 25.448 283.137 25.118" class="st135"/><polygon points="284.673 26.108 282.881 28.334 283.393 28.664 285.099 26.52 284.673 26.108" class="st135"/><polygon points="286.038 27.18 284.161 29.324 284.673 29.654 286.464 27.592 286.038 27.18" class="st135"/><polygon points="287.573 28.087 284.758 30.973 285.185 31.385 288 28.417 287.573 28.087" class="st133"/><polygon points="287.573 28.087 284.758 30.973 285.185 31.385 288 28.417 287.573 28.087" class="st134"/><path d="M278.018,28.252c-0.171-0.082-0.341-0.165-0.512-0.247c-0.085,0-0.171-0.082-0.171-0.082 c-0.171-0.082-0.341-0.165-0.512-0.247c-11.603-5.525-26.021-3.628-35.662,5.69c12.797,12.369,12.797,12.369,12.797,12.369 c3.157-3.051,7.593-4.205,11.688-3.381c0.682,0.082,1.28,0.247,1.962,0.495c0.256,0.082,0.512,0.165,0.768,0.33 c1.365,0.577,2.73,1.402,3.839,2.556c12.797-12.369,12.797-12.369,12.797-12.369C282.881,31.303,280.492,29.654,278.018,28.252 L278.018,28.252z" class="st7"/><path d="M251.484,27.84c-0.085,0-0.085,0-0.085,0c-0.171,0.082-0.256,0.165-0.427,0.165 c0,0.082-0.085,0.082-0.171,0.082c-0.085,0.082-0.256,0.165-0.427,0.247c-1.195,0.577-2.389,1.237-3.583,2.061 c1.792-0.412,3.754-0.742,5.802-0.989c0.682-0.082,0.682-0.082,0.682-0.082c2.986-0.412,6.058-0.577,9.385-0.577 c6.484,0,12.542,0.742,17.319,1.979c-8.02-5.69-19.026-6.762-28.069-3.051L251.484,27.84z" class="st6"/><path d="M268.718,42.6c9.3-14.348,9.3-14.348,9.3-14.348c-0.171-0.082-0.341-0.165-0.512-0.247 c-1.877,2.556-1.877,2.556-1.877,2.556c-8.02,12.286-8.02,12.286-8.02,12.286c0.256,0.082,0.512,0.165,0.768,0.33L268.718,42.6z" class="st136"/><path d="M277.335,27.922c-0.171-0.082-0.341-0.165-0.512-0.247c-11.176,14.678-11.176,14.678-11.176,14.678 c-2.73,3.546-2.73,3.546-2.73,3.546c-0.085-0.082-0.256-0.082-0.341-0.082c-1.792,0-3.242,1.402-3.242,3.133 c0,1.649,1.45,3.051,3.242,3.051c1.706,0,3.157-1.402,3.157-3.051c0-0.825-0.256-1.484-0.768-2.061 c2.645-4.04,2.645-4.04,2.645-4.04L277.335,27.922z" class="st134"/></g></svg>