<svg xmlns="http://www.w3.org/2000/svg" xmlns:xlink="http://www.w3.org/1999/xlink" id="Layer_2" data-name="Layer 2" viewBox="0 0 400 140"><defs><style>.cls-1,.cls-10,.cls-11,.cls-4,.cls-5,.cls-9{fill:none}.cls-2{fill:#9fcb9f}.cls-3{clip-path:url(#clip-path)}.cls-4,.cls-5{stroke:#fff;stroke-linecap:round;stroke-linejoin:round;stroke-width:1.54px;opacity:.3}.cls-4,.cls-8,.cls-9{fill-rule:evenodd}.cls-6{fill:#464646}.cls-7{fill:#231f20}.cls-8{fill:#2b5c72}.cls-10,.cls-11,.cls-9{stroke:#2b5c72;stroke-miterlimit:10;stroke-width:.72px}.cls-11{stroke-dasharray:.72 .72}.cls-12,.cls-16{fill:#fff}.cls-12{opacity:.25}.cls-13{fill:#00599c}.cls-14{fill:#004482}.cls-15{fill:#659ad2}</style><clipPath id="clip-path"><rect width="154.26" height="84.27" x="139.87" y="19.34" class="cls-1"/></clipPath></defs><title>vs_gaming-5</title><g><g><rect width="154.26" height="84.27" x="139.87" y="19.34" class="cls-2"/><g class="cls-3"><g><polyline points="168.42 104.44 168.42 56.29 190.26 56.29" class="cls-4"/><polyline points="242.33 19.62 242.33 43.41 222.45 43.41 222.45 65.25 193.62 65.25 193.62 90.45 153.3 90.45 153.3 105.56" class="cls-4"/><path d="M138.75,79.25h14.84V61.05c0-7.84,3.64-17.92,17.36-17.92h27.44c9,0,18.48-5,18.48-14.84v-16" class="cls-4"/><line x1="188.86" x2="188.86" y1="43.13" y2="19.9" class="cls-5"/><polyline points="168.98 43.13 168.98 30.82 150.5 30.82" class="cls-4"/><path d="M206.5,105.84V89.33c0-9,1.68-14.84,17.36-14.84h59.91V26.06h14" class="cls-4"/><polyline points="226.65 104.44 226.65 86.53 244.57 86.53 244.57 54.05 299.16 54.05" class="cls-4"/><path d="M292.72,95.21H281c-10.64,0-18.48-3.08-18.48-16V33.34" class="cls-4"/></g></g><polygon points="249.4 121.28 183.92 121.28 187.75 116.93 245.56 116.93 249.4 121.28" class="cls-6"/><path d="M246.81,123.71H186.62a2.57,2.57,0,0,1-2.83-2.45H249.4S249.73,123.71,246.81,123.71Z" class="cls-7"/><polygon points="230.85 118.47 202.46 118.47 204.76 105.42 228.55 105.42 230.85 118.47" class="cls-7"/><polygon points="279.31 133.59 155.64 133.59 162.88 125.37 272.06 125.37 279.31 133.59" class="cls-6"/><polygon points="267.96 131.09 166.99 131.09 170.54 126.33 264.41 126.33 267.96 131.09" class="cls-7"/><path d="M274.42,136.64H160.74c-5.25,0-5.34-3.08-5.34-3.08H279.31S279.95,136.64,274.42,136.64Z" class="cls-7"/><path d="M202,100.92l.17-1a9.3,9.3,0,0,0-1.75-8.71l2.22-13.66a3.19,3.19,0,0,0-6.09-1.88L191.37,88a9.31,9.31,0,0,0-7,6.38l-2.71,6.51Z" class="cls-8"/><path d="M293.46,18H140.54A3.54,3.54,0,0,0,137,21.54v81.68a3.54,3.54,0,0,0,3.54,3.54H293.46a3.54,3.54,0,0,0,3.54-3.54V21.54A3.54,3.54,0,0,0,293.46,18Zm-1.82,82.58H142.22v-78H291.64Z" class="cls-7"/><g><path d="M197.85,51.46A9.74,9.74,0,1,0,210,45,9.74,9.74,0,0,0,197.85,51.46Z" class="cls-9"/><line x1="194.96" x2="200.53" y1="50.57" y2="52.29" class="cls-10"/><line x1="213.67" x2="219.23" y1="56.34" y2="58.05" class="cls-10"/><line x1="209.03" x2="210.75" y1="47.69" y2="42.13" class="cls-10"/><line x1="206.1" x2="207.81" y1="57.22" y2="51.65" class="cls-10"/><line x1="201.98" x2="205.47" y1="70.56" y2="59.24" class="cls-11"/><line x1="204.26" x2="209.82" y1="53.44" y2="55.15" class="cls-10"/></g></g><polygon points="290.65 68.22 290.65 22.84 245.27 22.84 290.65 68.22" class="cls-12"/></g><g><path d="M161.21,61a5.49,5.49,0,0,0,.79-2.64V28.77a5.49,5.49,0,0,0-.79-2.64l-3.64-.27-27.68,15.5-2.21,7.75,30.11,14.3Z" class="cls-13"/><path d="M133.68,77.82,159.32,63a5.49,5.49,0,0,0,1.9-2L131,43.57,100.79,61a5.49,5.49,0,0,0,1.9,2l25.63,14.8A6,6,0,0,0,133.68,77.82Z" class="cls-14"/><path d="M161.21,26.13a5.5,5.5,0,0,0-1.9-2L133.68,9.33a6,6,0,0,0-5.37,0l-25.63,14.8A6,6,0,0,0,100,28.77v29.6a5.49,5.49,0,0,0,.79,2.64L131,43.57Z" class="cls-15"/><path d="M131,64.24a20.67,20.67,0,1,1,17.9-31L140,38.41a10.33,10.33,0,1,0,0,10.33l8.94,5.18A20.74,20.74,0,0,1,131,64.24Z" class="cls-16"/><polygon points="151.48 42.38 148.71 42.38 148.71 39.62 146.5 39.62 146.5 42.38 143.73 42.38 143.73 44.6 146.5 44.6 146.5 47.37 148.71 47.37 148.71 44.6 151.48 44.6 151.48 42.38" class="cls-16"/><polygon points="160.34 42.38 157.57 42.38 157.57 39.62 155.36 39.62 155.36 42.38 152.59 42.38 152.59 44.6 155.36 44.6 155.36 47.37 157.57 47.37 157.57 44.6 160.34 44.6 160.34 42.38" class="cls-16"/></g></svg>