<svg xmlns="http://www.w3.org/2000/svg" xmlns:xlink="http://www.w3.org/1999/xlink" id="Layer_1" x="0" y="0" version="1.1" viewBox="0 0 80 80" xml:space="preserve" style="enable-background:new 0 0 80 80"><style type="text/css">.st1{fill:#fff}.st11{fill:#9a37af}.st12{fill:#721481}</style><g><circle cx="40" cy="40" r="40" class="st11"/><path d="M12.269,11.188C4.71,18.465,0,28.679,0,40c0,22.091,17.909,40,40,40c11.321,0,21.535-4.71,28.812-12.269 L12.269,11.188z" class="st12"/><g><path d="M21.336,25.095v12.656h12.281v2.836H21.336v15.258h-3.117V22.236h16.383v2.859H21.336z" class="st1"/><path d="M63.406,33.908h-6.234l-1.641,7.57h6.633l-0.516,2.156h-6.539l-2.039,9.328h-2.414l2.016-9.328h-6.07 l-1.992,9.328h-2.414l1.992-9.328h-6.375l0.445-2.156h6.398l1.594-7.57h-6.68l0.469-2.156h6.656l2.016-9.516h2.414l-2.016,9.516 h6.094l2.039-9.516h2.391l-2.039,9.516h6.305L63.406,33.908z M48.688,33.908l-1.664,7.57h6.117l1.641-7.57H48.688z" class="st1"/></g></g></svg>