<svg xmlns="http://www.w3.org/2000/svg" id="Layer_1" data-name="Layer 1" viewBox="0 0 400 140"><defs><style>.cls-1{fill:#aab5c5}.cls-2{fill:#8090a8}.cls-3{fill:#389238}.cls-4{fill:#2b456d}.cls-5{fill:#556a8a}.cls-6{fill:#80a5a8}.cls-7{fill:#aac3c5}.cls-8{fill:#88be88}</style></defs><title>vs_web-6</title><rect width="96" height="48" x="116" y="80" class="cls-1"/><path d="M258.53,37.95l17.25,18.94a26,26,0,0,0-2.39-39.82Z" class="cls-2"/><path d="M259.47,35.15,272.7,16.57a25.9,25.9,0,0,0-5.38-2.84Z" class="cls-3"/><path d="M257.73,38.34l-24-9.56a26,26,0,0,0,41.47,28.69Z" class="cls-4"/><path d="M257.73,37.42l8.79-24A26,26,0,0,0,234,28Z" class="cls-5"/><rect width="68" height="7" x="116" y="16" class="cls-2"/><rect width="42" height="7" x="116" y="16" class="cls-4"/><rect width="18" height="7" x="116" y="16" class="cls-3"/><rect width="79" height="7" x="116" y="25" class="cls-2"/><rect width="48" height="7" x="116" y="25" class="cls-4"/><rect width="21" height="7" x="116" y="25" class="cls-3"/><rect width="84" height="7" x="116" y="34" class="cls-2"/><rect width="69" height="7" x="116" y="34" class="cls-4"/><rect width="46" height="7" x="116" y="34" class="cls-3"/><rect width="79" height="7" x="116" y="43" class="cls-2"/><rect width="46" height="7" x="116" y="43" class="cls-4"/><rect width="17" height="7" x="116" y="43" class="cls-3"/><rect width="96" height="7" x="116" y="52" class="cls-2"/><rect width="82" height="7" x="116" y="52" class="cls-4"/><rect width="46" height="7" x="116" y="52" class="cls-3"/><rect width="43" height="21" x="228" y="80" class="cls-4"/><rect width="12" height="10" x="272" y="80" class="cls-3" transform="translate(556 170) rotate(180)"/><rect width="20" height="13" x="228" y="102" class="cls-5"/><rect width="22" height="13" x="249" y="102" class="cls-3"/><rect width="31" height="12" x="228" y="116" class="cls-6"/><rect width="24" height="12" x="260" y="116" class="cls-7"/><rect width="12" height="13" x="272" y="102" class="cls-8" transform="translate(556 217) rotate(180)"/><rect width="12" height="10" x="272" y="91" class="cls-2" transform="translate(556 192) rotate(180)"/><polygon points="163.63 111.33 142.38 97.57 135.24 84.8 117.45 96.91 116.2 95.08 135.99 81.6 144.04 96.01 163.58 108.65 176.83 99.3 187.5 98.9 202.82 82.77 211.21 85.32 210.69 87.48 203.55 85.23 188.49 101.08 177.57 101.49 163.63 111.33" class="cls-4"/><polygon points="164.1 122.69 143.16 105.5 132.77 92.89 117.64 109.53 116 108.04 132.86 89.5 144.8 104 163.91 119.67 178.56 104.25 195.08 97.8 206.98 90.01 212 91.72 211.49 93.87 207.4 92.38 195.99 99.83 179.83 106.13 164.1 122.69" class="cls-3"/></svg>