<svg xmlns="http://www.w3.org/2000/svg" id="Layer_1" data-name="Layer 1" viewBox="0 0 400 140"><defs><style>.cls-1{fill:#2f75bb}.cls-2{fill:#549dd5}.cls-3{fill:#5e5e5e}.cls-4{fill:#2e2e2e}.cls-5{fill:#221f1f}.cls-6{fill:#fff}</style></defs><title>vs_windows-2</title><rect width="152" height="83" x="123" y="13" class="cls-1"/><polygon points="275 56.38 275 11 229.62 11 275 56.38" class="cls-2"/><polygon points="233 114 167.52 114 171.35 110 229.16 110 233 114" class="cls-3"/><path d="M230.41,116H170.22c-2.78.42-2.83-2-2.83-2H233S233.33,116.42,230.41,116Z" class="cls-4"/><polygon points="214.4 111 186.11 111 188.4 98 212.11 98 214.4 111" class="cls-4"/><path d="M276.46,11H123.54A3.54,3.54,0,0,0,120,14.54V96.46a3.54,3.54,0,0,0,3.54,3.54H276.46A3.54,3.54,0,0,0,280,96.46V14.54A3.54,3.54,0,0,0,276.46,11ZM275,93H125V16H275Z" class="cls-5"/><polygon points="262.91 126 139.24 126 146.49 118 255.66 118 262.91 126" class="cls-3"/><polygon points="251.56 124 150.59 124 154.14 119 248.01 119 251.56 124" class="cls-4"/><path d="M258,129H144.34c-5.25,0-5.34-3-5.34-3H262.91S263.55,129,258,129Z" class="cls-4"/><polygon points="194 53 194 35.39 176 37.8 176 53 194 53" class="cls-6"/><polygon points="196 53 220 53 220 31.95 196 35.11 196 53" class="cls-6"/><polygon points="196 55 196 73.12 220 76.43 220 55 196 55" class="cls-6"/><polygon points="194 55 176 55 176.12 70.31 194 72.82 194 55" class="cls-6"/></svg>